<?xml version="1.0" encoding="utf-8"?>
<!-- Generator: Adobe Illustrator 22.1.0, SVG Export Plug-In . SVG Version: 6.00 Build 0)  -->
<svg version="1.1" id="Layer_1" xmlns="http://www.w3.org/2000/svg" xmlns:xlink="http://www.w3.org/1999/xlink" x="0px" y="0px"
	 viewBox="0 0 56 56" style="enable-background:new 0 0 56 56;" xml:space="preserve">
<style type="text/css">
	.st0{fill:#211D1E;}
	.st1{fill:none;stroke:#211D1E;stroke-linecap:round;stroke-linejoin:round;stroke-miterlimit:10;}
	.st2{fill:none;stroke:#211D1E;stroke-linecap:round;stroke-linejoin:round;}
	.st3{fill:none;stroke:#211D1E;stroke-linecap:round;stroke-linejoin:round;stroke-dasharray:1.6777,1.6777;}
	.st4{fill:none;stroke:#211D1E;stroke-linecap:round;stroke-linejoin:round;stroke-dasharray:1.8654,1.8654;}
</style>
<polygon class="st0" points="20.5,9.6 18.7,7.8 19.7,6.8 15.8,6.8 15.8,10.7 16.8,9.7 18.6,11.5 "/>
<polygon class="st0" points="38.3,9.6 40.1,7.8 39.1,6.8 43,6.8 43,10.7 42,9.7 40.2,11.5 "/>
<polygon class="st0" points="20.5,50.5 18.7,52.3 19.7,53.3 15.8,53.3 15.8,49.4 16.8,50.4 18.6,48.6 "/>
<polygon class="st0" points="38.3,50.5 40.1,52.3 39.1,53.3 43,53.3 43,49.4 42,50.4 40.2,48.6 "/>
<rect x="13.9" y="5" class="st1" width="30.9" height="50.1"/>
<g>
	<g>
		<g>
			<polyline class="st2" points="36,45.9 36,47.8 34.2,47.8 			"/>
			<line class="st3" x1="31" y1="47.8" x2="26.2" y2="47.8"/>
			<polyline class="st2" points="24.6,47.8 22.7,47.8 22.7,45.9 			"/>
			<line class="st4" x1="22.7" y1="42.4" x2="22.7" y2="15.9"/>
			<polyline class="st2" points="22.7,14.2 22.7,12.3 24.6,12.3 			"/>
			<line class="st3" x1="27.8" y1="12.3" x2="32.6" y2="12.3"/>
			<polyline class="st2" points="34.2,12.3 36,12.3 36,14.2 			"/>
			<line class="st4" x1="36" y1="17.7" x2="36" y2="44.1"/>
		</g>
	</g>
</g>
<polygon class="st1" points="41.2,0.8 17.6,0.8 13.9,5 44.9,5 "/>
</svg>
