<?xml version="1.0" encoding="utf-8"?>
<!-- Generator: Adobe Illustrator 22.1.0, SVG Export Plug-In . SVG Version: 6.00 Build 0)  -->
<svg version="1.1" id="Layer_1" xmlns="http://www.w3.org/2000/svg" xmlns:xlink="http://www.w3.org/1999/xlink" x="0px" y="0px"
	 viewBox="0 0 56 56" style="enable-background:new 0 0 56 56;" xml:space="preserve">
<g>
	<g>
		<g>
			<rect x="1.995" y="42.3000031" width="1.114" height="7.4910011"/>
			<path d="M10.599,45.4370041c0,0.9099998,0,1.7229996,0.1009998,2.6339989
				c-0.3039999-0.6069984-0.7080002-1.3160019-1.1129999-2.0270004l-2.3280001-3.7439995l0,0H6.0440001v7.4910011H7.158v-3.237999
				c0-1.1160011,0-1.9249992-0.1030002-2.7330017c0.3039999,0.605999,0.71,1.3129997,1.2149997,2.1259995l2.3289995,3.7439995l0,0
				h1.1140003v-7.4910011H10.598999C10.599,42.3000031,10.599,45.4370041,10.599,45.4370041z"/>
			<path d="M17.382,45.9450035c-0.3040009,0.9109993-0.6070004,1.7200012-0.8110008,2.4280014
				c-0.2010002-0.7080002-0.4039993-1.5169983-0.7080002-2.4280014l-1.1139994-3.6450005v-0.1020012h-1.2130003l2.4279995,7.4910011
				v0.1020012h1.2150002l2.7339993-7.4910011H18.697998L17.382,45.9450035z"/>
			<polygon points="22.9489994,46.3470039 25.8859997,46.3470039 25.8859997,45.4370041 22.9489994,45.4370041 
				22.9489994,43.2120056 25.9860001,43.2120056 25.9860001,42.3000031 21.8360004,42.3000031 21.8360004,49.7910042 
				26.1889992,49.7910042 26.1889992,48.8790054 22.9489994,48.8790054 			"/>
			<path d="M32.769001,47.6650047c-0.2029991-0.8089981-0.507-1.2140007-1.0119991-1.5200005
				c0.809-0.3040009,1.3150005-1.0130005,1.3150005-1.9230003c0-0.6049995-0.2029991-1.1139984-0.6069984-1.4179993
				c-0.507-0.4049988-1.1140003-0.605999-2.2269993-0.605999c-0.7099991,0-1.3169994,0.1020012-1.8220005,0.2010002h-0.1009998
				v7.3919983h1.1119995v-3.1389999h0.8110008c0.809,0,1.2150002,0.4049988,1.4160004,1.3149986
				c0.2029991,1.1119995,0.4060001,1.6220016,0.5070019,1.8230019l0,0h1.2150002l-0.1010017-0.1020012
				C33.1730003,49.3840027,33.0719986,48.6790047,32.769001,47.6650047z M31.9580002,44.4260025
				c0,0.8090019-0.6070004,1.3139992-1.6189995,1.3139992h-0.9109993v-2.5279999
				c0.2019997,0,0.4039993-0.1040001,0.8110008-0.1040001C31.1490002,43.1080055,31.9580002,43.4140053,31.9580002,44.4260025z"/>
			<polygon points="40.2589989,42.3000031 34.6910019,42.3000031 34.6910019,43.3100052 36.9199982,43.3100052 
				36.9199982,49.7910042 38.0320015,49.7910042 38.0320015,43.3100052 40.2589989,43.3100052 			"/>
			<polygon points="46.9399986,48.8790054 43.7000008,48.8790054 43.7000008,46.3470039 46.5359993,46.3470039 
				46.5359993,45.4370041 43.7000008,45.4370041 43.7000008,43.2120056 46.7369995,43.2120056 46.7369995,42.3000031 
				42.5870018,42.3000031 42.5870018,49.7910042 46.9399986,49.7910042 			"/>
			<path d="M52.2039986,47.9680023c0.2029991,1.0149994,0.4059982,1.6220016,0.5050011,1.8230019l0,0h1.2150002L53.822998,49.689003
				c-0.2019997-0.3059998-0.3030014-1.0110016-0.605999-2.0239983c-0.2039986-0.8089981-0.5079994-1.2140007-1.0130005-1.5200005
				c0.8090019-0.3040009,1.3159981-1.0130005,1.3159981-1.9230003c0-0.6049995-0.2019997-1.1139984-0.6080017-1.4179993
				c-0.5050011-0.4049988-1.1139984-0.605999-2.2270012-0.605999c-0.7080002,0-1.4160004,0.1020012-1.8219986,0.2010002h-0.1010017
				v7.3919983h1.1139984v-3.1389999h0.8089981C51.5970001,46.6520042,52.0019989,47.0580025,52.2039986,47.9680023z
				 M50.8889999,45.7400055h-0.9109993v-2.5279999c0.2029991,0,0.4039993-0.1040001,0.8100014-0.1040001
				c0.7089996,0,1.6199989,0.2010002,1.6199989,1.3170013C52.4070015,45.234005,51.7980003,45.7400055,50.8889999,45.7400055z"/>
		</g>
		<g>
			<path d="M9.7889996,32.8860054c-0.7080002,0-1.316,0-2.0229998,0.1020012H7.6630001v7.2900009h0.1030002
				c0.5049996,0.0979996,1.112,0.0979996,1.7199998,0.0979996c1.4180002,0,2.5319996-0.401001,3.2399998-1.1119995
				c0.7080002-0.7089996,1.1140003-1.7190018,1.1140003-2.8349991c0-1.1119995-0.4060001-2.0239983-1.0130005-2.632
				C12.118,33.189003,11.1059999,32.8860054,9.7889996,32.8860054z M9.6879997,39.465004c-0.2030001,0-0.6070004,0-0.9110003,0
				v-5.5670013c0.2030001,0,0.507-0.1020012,1.0120001-0.1020012c0.9110003,0,1.7220001,0.2019997,2.1259995,0.7109985
				c0.507,0.5050011,0.71,1.1119995,0.71,2.0219994C12.7250004,38.4540024,11.6110001,39.465004,9.6879997,39.465004z"/>
			<rect x="15.8629999" y="32.8860054" width="1.1139994" height="7.3919983"/>
			<path d="M22.5450001,37.3380051h1.5189991v2.026001c-0.1009998,0-0.507,0.1010017-1.1140003,0.1010017
				c-1.7199993,0-2.7329998-1.1119995-2.7329998-2.8339996c0-1.7229996,1.1140003-2.8349991,2.8349991-2.8349991
				c0.809,0,1.2150002,0.2019997,1.6189995,0.3040009h0.1009998l0.3029995-0.9099998h-0.1009998
				c-0.3040009-0.2019997-1.0109997-0.3040009-1.8220005-0.3040009c-2.4300003,0-4.0489998,1.5180016-4.0489998,3.8460007
				c0,1.1160011,0.4039993,2.1259995,1.0119991,2.7330017c0.7080002,0.7109985,1.6189995,1.0139999,2.7329998,1.0139999
				c1.0109997,0,1.8220005-0.2010002,2.2259998-0.4070015h0.1009998v-3.644001h-2.5300007L22.5450001,37.3380051
				L22.5450001,37.3380051z"/>
			<rect x="27.5049992" y="32.8860054" width="1.1140003" height="7.3919983"/>
			<polygon points="35.8059998,32.8860054 30.2380009,32.8860054 30.2380009,33.8970032 32.4650002,33.8970032 
				32.4650002,40.3750038 33.5779991,40.3750038 33.5779991,33.8970032 35.8059998,33.8970032 			"/>
			<path d="M39.5509987,32.8860054h-1.2150002l-2.5299988,7.3919983h1.1139984l0.7070007-2.3300018h2.5309982l0.8089981,2.3300018
				h1.2150002L39.5509987,32.8860054L39.5509987,32.8860054z M38.9430008,34.1000023
				c0.1010017,0.3040009,0.2029991,0.7109985,0.3040009,1.0149994l0.7080002,1.9199982h-1.9230003l0.7089996-2.0219994
				C38.7410011,34.9080048,38.8409996,34.5070038,38.9430008,34.1000023z"/>
			<polygon points="45.118,32.8860054 44.0040016,32.8860054 44.0040016,40.3750038 48.2560005,40.3750038 48.2560005,39.3640022 
				45.118,39.3640022 			"/>
		</g>
		<g>
			<polygon points="1.995,52.6260033 2.806,52.6260033 2.806,55.156002 3.4130001,55.156002 3.4130001,52.6260033 
				4.2220001,52.6260033 4.2220001,52.1170044 1.995,52.1170044 			"/>
			<polygon points="8.2709999,53.7380028 9.3850002,53.7380028 9.3850002,53.333004 8.2709999,53.333004 8.2709999,52.6260033 
				9.4849997,52.6260033 9.4849997,52.1170044 7.7659998,52.1170044 7.7659998,55.156002 9.4849997,55.156002 9.4849997,54.6500053 
				8.2709999,54.6500053 			"/>
			<path d="M14.6479998,52.5240021c0.3039999,0,0.4040003,0.1020012,0.507,0.1020012l0.1009998,0.1010017l0.1029997-0.5060005
				h-0.1029997c-0.1009998,0-0.3039999-0.1040001-0.7080002-0.1040001c-0.9110003,0-1.6199999,0.6090012-1.6199999,1.6209984
				c0,0.9119987,0.6070004,1.5200005,1.5190001,1.5200005c0.4040003,0,0.6059999-0.1020012,0.809-0.1020012h0.1029997
				l-0.1029997-0.5060005l-0.1009998,0.098999c-0.1029997-0.098999-0.3039999-0.098999-0.507-0.098999
				c-0.6070004,0-1.0120001-0.4070015-1.0120001-1.0139999C13.6370001,52.9300041,14.0410004,52.5240021,14.6479998,52.5240021z"/>
			<polygon points="20.4190006,53.2330055 19.3050003,53.2330055 19.3050003,52.1170044 18.698,52.1170044 18.698,55.156002 
				19.3050003,55.156002 19.3050003,53.7380028 20.4190006,53.7380028 20.4190006,55.156002 21.0270004,55.156002 
				21.0270004,52.1170044 20.4190006,52.1170044 			"/>
			<path d="M26.5939999,53.333004c0,0.2039986,0,0.5050011,0,0.7089996
				c-0.1019993-0.2039986-0.2029991-0.3040009-0.3040009-0.5050011l-0.9120007-1.5180016h-0.5060005v3.0320015h0.5060005v-1.3129997
				c0-0.3040009,0-0.5050011,0-0.7089996c0.1009998,0.2039986,0.2040005,0.3040009,0.3040009,0.5079994l0.9109993,1.4169998
				v0.0979996h0.5049992v-3.0319977h-0.5049992v1.3129997H26.5939999z"/>
			<path d="M32.0610008,52.0200043c-0.8120003,0-1.4179993,0.605999-1.4179993,1.6170006
				c0,0.9099998,0.6060009,1.5200005,1.4179993,1.5200005c0.7080002,0,1.4160004-0.5060005,1.4160004-1.6189995
				C33.3759995,52.6260033,32.8689995,52.0200043,32.0610008,52.0200043z M31.9580002,54.6500053
				c-0.5049992,0-0.809-0.5050011-0.809-1.0139999c0-0.5050011,0.2010002-1.1119995,0.809-1.1119995
				c0.507,0,0.8110008,0.5050011,0.8110008,1.0130005C32.769001,54.1460037,32.5649986,54.6500053,31.9580002,54.6500053z"/>
			<polygon points="37.4249992,52.1170044 36.8170013,52.1170044 36.8170013,55.156002 38.6399994,55.156002 38.6399994,54.6500053 
				37.4249992,54.6500053 			"/>
			<path d="M42.7890015,52.0200043c-0.8089981,0-1.4160004,0.605999-1.4160004,1.6170006
				c0,0.9099998,0.6069984,1.5200005,1.4160004,1.5200005c0.7099991,0,1.4179993-0.5060005,1.4179993-1.6189995
				C44.2070007,52.6260033,43.5999985,52.0200043,42.7890015,52.0200043z M42.7890015,54.6500053
				c-0.5050011,0-0.8089981-0.5050011-0.8089981-1.0139999c0-0.5050011,0.2010002-1.1119995,0.8089981-1.1119995
				c0.507,0,0.8110008,0.5050011,0.8110008,1.0130005C43.5999985,54.1460037,43.3959999,54.6500053,42.7890015,54.6500053z"/>
			<path d="M47.9519997,53.9400024h0.6069984v0.7099991c-0.1020012,0-0.2010002,0-0.4039993,0
				c-0.6069984,0-1.012001-0.4070015-1.012001-1.0139999S47.5469971,52.625,48.1549988,52.625
				c0.3030014,0,0.507,0.1010017,0.6069984,0.1010017h0.1010017l0.1030006-0.5060005H48.862999
				c-0.1010017-0.1040001-0.4049988-0.1040001-0.7080002-0.1040001c-1.012001,0-1.6189995,0.6090012-1.6189995,1.5200005
				c0,0.4049988,0.2010002,0.8129997,0.4039993,1.1119995c0.3040009,0.3030014,0.6069984,0.4070015,1.112999,0.4070015
				c0.4039993,0,0.7089996-0.1040001,0.9119987-0.2019997h0.1010017v-1.5200005h-1.1139984V53.9400024L47.9519997,53.9400024z"/>
			<path d="M53.3180008,52.1170044l-0.507,0.9119987c-0.1030006,0.1030006-0.1030006,0.2039986-0.2010002,0.3040009
				C52.507,53.2330055,52.507,53.1320038,52.4070015,52.9300041l-0.4049988-0.8129997h-0.605999l0.9090004,1.7210007v1.3180008
				h0.6069984v-1.3180008l1.012001-1.7210007H53.3180008L53.3180008,52.1170044z"/>
		</g>
	</g>
	<g>
		<path d="M42.9910011,14.8670044L42.9910011,14.8670044c-0.0999985-7.9970002-6.4780006-14.375-14.4759998-14.375
			c-0.2000008,0-2.8330002,0-2.8330002,0v9.415c0,0,1.2140007,0,3.2380009,0c2.7329998,0,4.9620018,2.2270002,4.9620018,4.9589996
			c0,2.7330008-2.2290001,4.9620008-4.9619999,4.9620008c-0.6049995,0-2.8339996,0-5.0609989,0
			c0.2040005,2.6310005,1.1140003,8.2989998,5.8719997,9.3129997c0.6070004,0.1009998,1.1130009,0.1009998,1.3150005,0
			C37.9319992,27.9260063,42.9910011,22.0540066,42.9910011,14.8670044L42.9910011,14.8670044L42.9910011,14.8670044z"/>
		<path d="M12.7250004,0.4930048h9.414999v18.0200005c0,0-0.3029995,10.7299995,7.2880001,10.7299995
			c-4.8579998,0-16.6019993,1.0119991-16.6019993-14.0710011C12.8260002,4.1370049,12.7250004,0.4930048,12.7250004,0.4930048z"/>
	</g>
</g>
</svg>
