<?xml version="1.0" encoding="utf-8"?>
<!-- Generator: Adobe Illustrator 16.0.0, SVG Export Plug-In . SVG Version: 6.00 Build 0)  -->
<!DOCTYPE svg PUBLIC "-//W3C//DTD SVG 1.1//EN" "http://www.w3.org/Graphics/SVG/1.1/DTD/svg11.dtd">
<svg version="1.1" id="Layer_1" xmlns="http://www.w3.org/2000/svg" xmlns:xlink="http://www.w3.org/1999/xlink" x="0px" y="0px"
	 width="60px" height="60px" viewBox="0 0 60 60" enable-background="new 0 0 60 60" xml:space="preserve">
<g>
	<path d="M54.664,56.945H4.978c-0.414,0-0.75-0.336-0.75-0.75v-52.5c0-0.414,0.336-0.75,0.75-0.75h49.688
		c0.415,0,0.751,0.336,0.751,0.75v52.5C55.415,56.609,55.079,56.945,54.664,56.945z M5.728,55.445h48.188v-51H5.728V55.445z"/>
	<polygon points="20.983,10.802 38.392,10.802 38.392,10.802 38.392,9.649 38.392,9.649 20.983,9.649 20.983,9.649 	"/>
	<path d="M17.938,16.349l-0.953,0.952c-0.227,0.227-0.227,0.591,0,0.816c0.111,0.113,0.26,0.169,0.406,0.169
		c0.148,0,0.295-0.056,0.408-0.169l1.852-1.852c0.053-0.053,0.095-0.116,0.125-0.188c0.058-0.141,0.058-0.3,0-0.439
		c-0.029-0.071-0.071-0.136-0.125-0.188L17.8,13.6c-0.226-0.226-0.591-0.226-0.816,0c-0.225,0.226-0.225,0.591,0,0.815l0.736,0.736
		c-1.898-0.334-3.127-1.26-3.127-2.109c0-1.06,1.909-2.239,4.649-2.239l0,0V9.649l0,0c-3.255,0-5.804,1.49-5.804,3.393
		C13.44,14.681,15.334,16.011,17.938,16.349z"/>
	<path d="M44.628,13.042c0,0.849-1.229,1.774-3.127,2.109l0.735-0.736c0.226-0.225,0.226-0.59,0-0.815s-0.591-0.226-0.815,0
		l-1.851,1.852c-0.054,0.053-0.097,0.117-0.125,0.188c-0.058,0.142-0.058,0.301,0,0.44c0.028,0.071,0.071,0.135,0.125,0.188
		l1.851,1.851c0.112,0.113,0.26,0.169,0.407,0.169s0.296-0.057,0.407-0.169c0.226-0.226,0.226-0.589,0-0.815l-0.952-0.952
		c2.604-0.338,4.498-1.668,4.498-3.308c0-1.903-2.549-3.393-5.804-3.393v1.152C42.718,10.802,44.628,11.982,44.628,13.042z"/>
	<polygon points="20.983,21.893 38.392,21.893 38.392,21.893 38.392,20.74 38.392,20.74 20.983,20.74 20.983,20.74 	"/>
	<path d="M17.938,27.439l-0.953,0.952c-0.227,0.226-0.227,0.591,0,0.816c0.111,0.113,0.26,0.169,0.406,0.169
		c0.148,0,0.295-0.056,0.408-0.169l1.852-1.851c0.053-0.054,0.095-0.117,0.125-0.188c0.058-0.141,0.058-0.3,0-0.439
		c-0.029-0.071-0.071-0.135-0.125-0.188L17.8,24.69c-0.226-0.226-0.591-0.226-0.816,0c-0.225,0.225-0.225,0.59,0,0.815l0.736,0.735
		c-1.898-0.334-3.127-1.26-3.127-2.109c0-1.059,1.909-2.238,4.649-2.238l0,0V20.74l0,0c-3.255,0-5.804,1.49-5.804,3.393
		C13.44,25.771,15.334,27.102,17.938,27.439z"/>
	<path d="M44.628,24.133c0,0.85-1.229,1.774-3.127,2.109l0.735-0.736c0.226-0.225,0.226-0.59,0-0.815s-0.591-0.226-0.815,0
		l-1.851,1.851c-0.054,0.053-0.097,0.117-0.125,0.188c-0.058,0.142-0.058,0.301,0,0.44c0.028,0.071,0.071,0.134,0.125,0.188
		l1.851,1.851c0.112,0.113,0.26,0.169,0.407,0.169s0.296-0.057,0.407-0.169c0.226-0.226,0.226-0.59,0-0.816l-0.952-0.952
		c2.604-0.338,4.498-1.668,4.498-3.308c0-1.903-2.549-3.393-5.804-3.393v1.152C42.718,21.893,44.628,23.073,44.628,24.133z"/>
	<polygon points="20.983,32.984 38.392,32.984 38.392,32.984 38.392,31.831 38.392,31.831 20.983,31.831 20.983,31.831 	"/>
	<path d="M17.938,38.531l-0.953,0.952c-0.227,0.225-0.227,0.59,0,0.814c0.111,0.113,0.26,0.169,0.406,0.169
		c0.148,0,0.295-0.056,0.408-0.169l1.852-1.851c0.053-0.053,0.095-0.117,0.125-0.188c0.058-0.141,0.058-0.3,0-0.439
		c-0.029-0.071-0.071-0.136-0.125-0.188L17.8,35.78c-0.226-0.226-0.591-0.226-0.816,0c-0.225,0.225-0.225,0.59,0,0.814l0.736,0.735
		c-1.898-0.334-3.127-1.26-3.127-2.108c0-1.06,1.909-2.238,4.649-2.238l0,0V31.83l0,0c-3.255,0-5.804,1.489-5.804,3.393
		C13.44,36.863,15.334,38.193,17.938,38.531z"/>
	<path d="M44.628,35.224c0,0.85-1.229,1.774-3.127,2.109l0.735-0.736c0.226-0.225,0.226-0.59,0-0.814
		c-0.226-0.226-0.591-0.226-0.815,0l-1.851,1.851c-0.054,0.053-0.097,0.117-0.125,0.188c-0.058,0.141-0.058,0.3,0,0.439
		c0.028,0.071,0.071,0.136,0.125,0.188l1.851,1.851c0.112,0.113,0.26,0.169,0.407,0.169s0.296-0.056,0.407-0.169
		c0.226-0.225,0.226-0.59,0-0.814l-0.952-0.952c2.604-0.338,4.498-1.668,4.498-3.309c0-1.901-2.549-3.393-5.804-3.393v1.153
		C42.718,32.984,44.628,34.164,44.628,35.224z"/>
	<polygon points="20.983,44.075 38.392,44.075 38.392,44.075 38.392,42.922 38.392,42.922 20.983,42.922 20.983,42.922 	"/>
	<path d="M17.938,49.622l-0.953,0.952c-0.227,0.226-0.227,0.591,0,0.814c0.111,0.113,0.26,0.169,0.406,0.169
		c0.148,0,0.295-0.056,0.408-0.169l1.852-1.851c0.053-0.053,0.095-0.116,0.125-0.188c0.058-0.141,0.058-0.3,0-0.439
		c-0.029-0.07-0.071-0.135-0.125-0.188L17.8,46.871c-0.226-0.226-0.591-0.226-0.816,0c-0.225,0.226-0.225,0.591,0,0.814l0.736,0.736
		c-1.898-0.335-3.127-1.261-3.127-2.109c0-1.06,1.909-2.238,4.649-2.238l0,0v-1.153l0,0c-3.255,0-5.804,1.49-5.804,3.394
		C13.44,47.954,15.334,49.284,17.938,49.622z"/>
	<path d="M44.628,46.314c0,0.85-1.229,1.773-3.127,2.108l0.735-0.735c0.226-0.226,0.226-0.591,0-0.815
		c-0.226-0.226-0.591-0.226-0.815,0l-1.851,1.851c-0.054,0.055-0.097,0.117-0.125,0.188c-0.058,0.141-0.058,0.3,0,0.439
		c0.028,0.071,0.071,0.136,0.125,0.188l1.851,1.85c0.112,0.113,0.26,0.17,0.407,0.17s0.296-0.057,0.407-0.17
		c0.226-0.225,0.226-0.589,0-0.814l-0.952-0.951c2.604-0.339,4.498-1.669,4.498-3.309c0-1.902-2.549-3.394-5.804-3.394v1.153
		C42.718,44.075,44.628,45.256,44.628,46.314z"/>
</g>
<rect fill="none" width="60" height="60"/>
</svg>
