<?xml version="1.0" encoding="utf-8"?>
<!-- Generator: Adobe Illustrator 19.2.1, SVG Export Plug-In . SVG Version: 6.00 Build 0)  -->
<svg version="1.1" id="Layer_1" xmlns="http://www.w3.org/2000/svg" xmlns:xlink="http://www.w3.org/1999/xlink" x="0px" y="0px"
	 viewBox="0 0 60 60" style="enable-background:new 0 0 60 60;" xml:space="preserve">
<style type="text/css">
	.st0{fill:#FFFFFF;}
	.st1{fill:none;stroke:#000000;stroke-linecap:round;stroke-linejoin:round;stroke-miterlimit:10;}
	.st2{fill:#D1D1D1;}
	.st3{fill:none;stroke:#000000;stroke-width:1.5;stroke-linecap:round;stroke-linejoin:round;stroke-miterlimit:10;}
	.st4{fill:none;stroke:#000000;stroke-width:1.5;stroke-linejoin:round;stroke-miterlimit:10;}
</style>
<g>
	<path d="M19.578,29.975c-0.207-0.358-0.664-0.483-1.024-0.274l-3.525,2.035v-4.071c0-0.414-0.336-0.75-0.75-0.75
		s-0.75,0.336-0.75,0.75v4.072L10.002,29.7c-0.36-0.208-0.817-0.084-1.024,0.274c-0.207,0.359-0.084,0.817,0.274,1.024l3.526,2.036
		L9.252,35.07c-0.358,0.207-0.481,0.666-0.274,1.024c0.139,0.241,0.391,0.375,0.65,0.375c0.127,0,0.256-0.032,0.374-0.101
		l3.526-2.036v4.072c0,0.414,0.336,0.75,0.75,0.75s0.75-0.336,0.75-0.75v-4.071l3.525,2.035c0.118,0.068,0.247,0.101,0.374,0.101
		c0.26,0,0.512-0.134,0.65-0.375c0.207-0.359,0.084-0.817-0.274-1.024l-3.526-2.036l3.526-2.036
		C19.662,30.792,19.785,30.333,19.578,29.975z"/>
	<path d="M43.214,23.565v4.955l-4.291-2.477c-0.36-0.209-0.817-0.084-1.024,0.274c-0.207,0.359-0.084,0.817,0.274,1.024l4.292,2.478
		l-4.292,2.478c-0.358,0.207-0.481,0.666-0.274,1.024c0.139,0.241,0.391,0.375,0.65,0.375c0.127,0,0.256-0.032,0.374-0.101
		l4.291-2.477v4.955c0,0.414,0.336,0.75,0.75,0.75s0.75-0.336,0.75-0.75v-4.956l4.292,2.478c0.118,0.068,0.247,0.101,0.374,0.101
		c0.26,0,0.512-0.134,0.65-0.375c0.207-0.359,0.084-0.817-0.274-1.024l-4.292-2.478l4.292-2.478
		c0.358-0.207,0.481-0.666,0.274-1.024c-0.206-0.358-0.665-0.483-1.024-0.274l-4.292,2.478v-4.956c0-0.414-0.336-0.75-0.75-0.75
		S43.214,23.151,43.214,23.565z"/>
	<path d="M56.464,22.17l-12.125-7c-0.232-0.134-0.518-0.134-0.75,0l-12.124,7c-0.232,0.134-0.375,0.381-0.375,0.649v14
		c0,0.268,0.143,0.516,0.375,0.649l12.124,7c0.116,0.067,0.245,0.101,0.375,0.101s0.259-0.034,0.375-0.101l12.125-7
		c0.232-0.134,0.375-0.381,0.375-0.649v-14C56.839,22.552,56.696,22.304,56.464,22.17z M55.339,36.387l-11.375,6.567L32.59,36.387
		V23.253l11.374-6.567l11.375,6.567V36.387z"/>
	<path d="M14.848,14.582c-0.143-0.166-0.351-0.262-0.569-0.262s-0.427,0.096-0.569,0.262c-0.39,0.454-9.552,11.202-10.305,17.928
		c-0.41,3.656,0.533,6.977,2.655,9.351c1.995,2.231,4.914,3.46,8.219,3.46s6.223-1.229,8.218-3.46
		c2.122-2.374,3.065-5.694,2.655-9.351C24.398,25.783,15.237,15.036,14.848,14.582z M21.378,40.86c-1.707,1.909-4.228,2.96-7.1,2.96
		s-5.394-1.051-7.101-2.96c-1.834-2.051-2.645-4.957-2.283-8.184c0.6-5.35,7.358-13.959,9.384-16.434
		c2.024,2.475,8.783,11.083,9.383,16.434C24.022,35.903,23.212,38.809,21.378,40.86z"/>
</g>
</svg>
